<svg width="324" height="21" viewBox="0 0 324 21" fill="none" xmlns="http://www.w3.org/2000/svg">
<path d="M46.2385 15H41.1009V20H46.2385V15Z" fill="#0A0A0A" style="fill:#0A0A0A;fill:color(display-p3 0.0392 0.0392 0.0392);fill-opacity:1;"/>
<path d="M75.4547 0.483332H75.4376C75.1122 0.166666 74.6841 0 74.2217 0H54.2364C53.774 0 53.3458 0.183332 53.0205 0.483332L50.6058 2.83333C50.2804 3.15 50.1091 3.56667 50.1091 4.01667V20H55.2468V5H73.2284V20H78.366V4.01667C78.366 3.56667 78.1777 3.15 77.8694 2.83333L75.4547 0.483332Z" fill="#0A0A0A" style="fill:#0A0A0A;fill:color(display-p3 0.0392 0.0392 0.0392);fill-opacity:1;"/>
<path d="M83.8633 0.483332H83.8461L81.4315 2.83333C81.1061 3.15 80.9348 3.56667 80.9348 4.01667V5H109.192V0H85.0792C84.6168 0 84.1887 0.183332 83.8633 0.483332Z" fill="#0A0A0A" style="fill:#0A0A0A;fill:color(display-p3 0.0392 0.0392 0.0392);fill-opacity:1;"/>
<path d="M85.062 7.51667C84.5997 7.51667 84.1715 7.7 83.8461 8L81.4315 10.35C81.1061 10.6667 80.9348 11.0833 80.9348 11.5333V15.9833C80.9348 16.4333 81.1232 16.85 81.4315 17.1667L83.8461 19.5167C84.1715 19.8333 84.5997 20 85.062 20H109.192V15H86.0553V12.5H109.192V7.5H85.062V7.51667Z" fill="#0A0A0A" style="fill:#0A0A0A;fill:color(display-p3 0.0392 0.0392 0.0392);fill-opacity:1;"/>
<path d="M34.4049 0.483332C34.0795 0.166666 33.6514 0 33.189 0H11.8338C11.3714 0 10.9433 0.183332 10.6179 0.483332L8.20321 2.83333C7.87783 3.15 7.70657 3.56667 7.70657 4.01667V5H32.1957V12.5H37.3333V4.01667C37.3333 3.56667 37.145 3.15 36.8367 2.83333L34.422 0.483332H34.4049Z" fill="#0A0A0A" style="fill:#0A0A0A;fill:color(display-p3 0.0392 0.0392 0.0392);fill-opacity:1;"/>
<path d="M12.844 15V7.5H7.70642V15.9833C7.70642 16.4333 7.8948 16.85 8.20306 17.1667L10.6177 19.5167C10.9431 19.8333 11.3713 20 11.8336 20H33.2061C33.6685 20 34.0966 19.8167 34.422 19.5167L36.8367 17.1667C37.1621 16.85 37.3333 16.4333 37.3333 15.9833V15H12.844Z" fill="#0A0A0A" style="fill:#0A0A0A;fill:color(display-p3 0.0392 0.0392 0.0392);fill-opacity:1;"/>
<path d="M0 15.9833C0 16.4333 0.188379 16.85 0.496636 17.1667L2.91131 19.5167C3.2367 19.8333 3.66483 20 4.12722 20H5.13761V7.5H0V15.9833Z" fill="#0A0A0A" style="fill:#0A0A0A;fill:color(display-p3 0.0392 0.0392 0.0392);fill-opacity:1;"/>
<path d="M2.91131 0.483332L0.496636 2.83333C0.171254 3.15 0 3.56667 0 4.01667V5H5.13761V0H4.12722C3.66483 0 3.2367 0.183332 2.91131 0.483332Z" fill="#0A0A0A" style="fill:#0A0A0A;fill:color(display-p3 0.0392 0.0392 0.0392);fill-opacity:1;"/>
<path d="M139.503 2.83333L137.089 0.483332H137.072C136.746 0.183332 136.318 0 135.856 0H128.44V5H140V4.01667C140 3.56667 139.829 3.15 139.503 2.83333Z" fill="#0A0A0A" style="fill:#0A0A0A;fill:color(display-p3 0.0392 0.0392 0.0392);fill-opacity:1;"/>
<path d="M125.529 0.483332C125.204 0.166666 124.776 0 124.313 0H115.905C115.442 0 115.014 0.183332 114.689 0.483332H114.672L112.257 2.83333C111.932 3.15 111.761 3.56667 111.761 4.01667V5H123.303V20H128.441V3.98333C128.441 3.55 128.252 3.15 127.944 2.83333L125.529 0.483332Z" fill="#0A0A0A" style="fill:#0A0A0A;fill:color(display-p3 0.0392 0.0392 0.0392);fill-opacity:1;"/>
<path d="M151.802 20.944L159.242 1.504H161.618L154.202 20.944H151.802Z" fill="#0A0A0A" style="fill:#0A0A0A;fill:color(display-p3 0.0403 0.0403 0.0403);fill-opacity:1;"/>
<path d="M175.58 18V3.42H181.46C182.873 3.42 184.067 3.72667 185.04 4.34C186.027 4.94 186.773 5.78667 187.28 6.88C187.8 7.97333 188.06 9.25333 188.06 10.72C188.06 11.8133 187.913 12.8067 187.62 13.7C187.327 14.5933 186.9 15.36 186.34 16C185.78 16.64 185.087 17.1333 184.26 17.48C183.447 17.8267 182.513 18 181.46 18H175.58ZM177.76 16.12H181.16C181.867 16.12 182.507 16.0133 183.08 15.8C183.653 15.5733 184.147 15.24 184.56 14.8C184.973 14.3467 185.287 13.78 185.5 13.1C185.727 12.4067 185.84 11.6 185.84 10.68C185.84 9.44 185.64 8.42667 185.24 7.64C184.853 6.84 184.307 6.25333 183.6 5.88C182.907 5.49333 182.093 5.3 181.16 5.3H177.76V16.12ZM195.312 18.18C194.539 18.18 193.832 18.0533 193.192 17.8C192.565 17.5467 192.025 17.18 191.572 16.7C191.119 16.22 190.765 15.6467 190.512 14.98C190.259 14.3133 190.132 13.5667 190.132 12.74C190.132 11.6467 190.339 10.6933 190.752 9.88C191.179 9.05333 191.779 8.41333 192.552 7.96C193.339 7.49333 194.259 7.26 195.312 7.26C196.085 7.26 196.785 7.38667 197.412 7.64C198.052 7.88 198.599 8.24 199.052 8.72C199.505 9.2 199.852 9.78 200.092 10.46C200.345 11.1267 200.472 11.88 200.472 12.72C200.472 13.8 200.265 14.7533 199.852 15.58C199.439 16.3933 198.845 17.0333 198.072 17.5C197.299 17.9533 196.379 18.18 195.312 18.18ZM195.312 16.46C195.925 16.46 196.459 16.32 196.912 16.04C197.379 15.7467 197.739 15.32 197.992 14.76C198.245 14.2 198.372 13.52 198.372 12.72C198.372 12.12 198.299 11.5933 198.152 11.14C198.019 10.6733 197.819 10.28 197.552 9.96C197.285 9.62667 196.965 9.38 196.592 9.22C196.219 9.04667 195.792 8.96 195.312 8.96C194.699 8.96 194.159 9.10667 193.692 9.4C193.239 9.69333 192.879 10.12 192.612 10.68C192.359 11.2267 192.232 11.9133 192.232 12.74C192.232 13.3267 192.299 13.8533 192.432 14.32C192.579 14.7733 192.785 15.16 193.052 15.48C193.332 15.8 193.659 16.0467 194.032 16.22C194.419 16.38 194.845 16.46 195.312 16.46ZM207.596 18.18C206.823 18.18 206.116 18.0533 205.476 17.8C204.85 17.5333 204.31 17.16 203.856 16.68C203.416 16.2 203.07 15.6267 202.816 14.96C202.576 14.2933 202.456 13.5467 202.456 12.72C202.456 11.8933 202.576 11.1467 202.816 10.48C203.07 9.81333 203.423 9.24 203.876 8.76C204.343 8.28 204.896 7.91333 205.536 7.66C206.176 7.39333 206.89 7.26 207.676 7.26C208.516 7.26 209.27 7.41333 209.936 7.72C210.603 8.02667 211.136 8.46 211.536 9.02C211.95 9.58 212.19 10.2267 212.256 10.96H210.256C210.163 10.52 209.99 10.1533 209.736 9.86C209.483 9.56667 209.176 9.34667 208.816 9.2C208.456 9.05333 208.056 8.98 207.616 8.98C207.123 8.98 206.683 9.07333 206.296 9.26C205.923 9.43333 205.603 9.68667 205.336 10.02C205.083 10.34 204.89 10.7333 204.756 11.2C204.623 11.6533 204.556 12.1667 204.556 12.74C204.556 13.5267 204.683 14.2 204.936 14.76C205.19 15.3067 205.543 15.7267 205.996 16.02C206.45 16.3133 206.983 16.46 207.596 16.46C208.103 16.46 208.543 16.3733 208.916 16.2C209.29 16.0133 209.596 15.7667 209.836 15.46C210.076 15.14 210.23 14.7667 210.296 14.34H212.316C212.236 15.1133 211.983 15.7933 211.556 16.38C211.143 16.9533 210.596 17.4 209.916 17.72C209.236 18.0267 208.463 18.18 207.596 18.18ZM218.064 18.18C217.264 18.18 216.577 18.0267 216.004 17.72C215.431 17.4 214.997 16.9267 214.704 16.3C214.411 15.66 214.264 14.8733 214.264 13.94V7.42H216.324V13.42C216.324 14.0733 216.404 14.6267 216.564 15.08C216.737 15.5333 217.011 15.88 217.384 16.12C217.757 16.3467 218.237 16.46 218.824 16.46C219.411 16.46 219.917 16.32 220.344 16.04C220.784 15.76 221.124 15.3667 221.364 14.86C221.604 14.3533 221.724 13.78 221.724 13.14V7.42H223.784V18H221.824L221.724 15.86H221.604C221.337 16.58 220.884 17.1467 220.244 17.56C219.604 17.9733 218.877 18.18 218.064 18.18ZM226.67 18V7.42H228.63L228.71 9.52H228.83C229.124 8.77333 229.584 8.21333 230.21 7.84C230.85 7.45333 231.557 7.26 232.33 7.26C233.104 7.26 233.797 7.44667 234.41 7.82C235.037 8.19333 235.484 8.83333 235.75 9.74H235.91C236.204 8.91333 236.684 8.29333 237.35 7.88C238.03 7.46667 238.79 7.26 239.63 7.26C240.324 7.26 240.944 7.40667 241.49 7.7C242.05 7.99333 242.49 8.46667 242.81 9.12C243.13 9.77333 243.29 10.64 243.29 11.72V18H241.25V12.14C241.25 11.42 241.164 10.8267 240.99 10.36C240.817 9.88 240.557 9.52667 240.21 9.3C239.864 9.07333 239.41 8.96 238.85 8.96C238.277 8.96 237.777 9.10667 237.35 9.4C236.924 9.69333 236.59 10.0867 236.35 10.58C236.124 11.06 236.01 11.6067 236.01 12.22V18H233.95V12.14C233.95 11.42 233.864 10.8267 233.69 10.36C233.517 9.88 233.257 9.52667 232.91 9.3C232.564 9.07333 232.117 8.96 231.57 8.96C230.984 8.96 230.477 9.10667 230.05 9.4C229.624 9.69333 229.29 10.0867 229.05 10.58C228.824 11.06 228.71 11.6067 228.71 12.22V18H226.67ZM250.343 18.18C249.316 18.18 248.43 17.96 247.683 17.52C246.95 17.0667 246.39 16.4333 246.003 15.62C245.616 14.8067 245.423 13.8533 245.423 12.76C245.423 11.64 245.616 10.6667 246.003 9.84C246.39 9.01333 246.943 8.38 247.663 7.94C248.396 7.48667 249.27 7.26 250.283 7.26C251.39 7.26 252.303 7.51333 253.023 8.02C253.756 8.51333 254.283 9.2 254.603 10.08C254.923 10.96 255.043 11.9733 254.963 13.12H247.443C247.456 13.8933 247.583 14.54 247.823 15.06C248.063 15.5667 248.396 15.9533 248.823 16.22C249.263 16.4733 249.77 16.6 250.343 16.6C251.036 16.6 251.596 16.4467 252.023 16.14C252.463 15.8333 252.756 15.4267 252.903 14.92H254.863C254.756 15.6 254.496 16.1867 254.083 16.68C253.67 17.16 253.143 17.5333 252.503 17.8C251.863 18.0533 251.143 18.18 250.343 18.18ZM247.463 11.98L247.263 11.72H253.143L252.943 12C252.956 11.2667 252.85 10.6667 252.623 10.2C252.41 9.73333 252.096 9.39333 251.683 9.18C251.283 8.95333 250.816 8.84 250.283 8.84C249.723 8.84 249.236 8.96 248.823 9.2C248.41 9.44 248.083 9.79333 247.843 10.26C247.603 10.7267 247.476 11.3 247.463 11.98ZM257.1 18V7.42H259.06L259.14 9.52H259.26C259.567 8.77333 260.047 8.21333 260.7 7.84C261.353 7.45333 262.067 7.26 262.84 7.26C263.387 7.26 263.887 7.34 264.34 7.5C264.807 7.66 265.207 7.92 265.54 8.28C265.887 8.62667 266.153 9.08667 266.34 9.66C266.527 10.22 266.62 10.9067 266.62 11.72V18H264.56V12.14C264.56 11.42 264.473 10.8267 264.3 10.36C264.127 9.88 263.86 9.52667 263.5 9.3C263.14 9.07333 262.673 8.96 262.1 8.96C261.5 8.96 260.973 9.10667 260.52 9.4C260.08 9.69333 259.74 10.0867 259.5 10.58C259.26 11.06 259.14 11.6067 259.14 12.22V18H257.1ZM272.53 18C271.73 18 271.13 17.8133 270.73 17.44C270.33 17.0533 270.13 16.4333 270.13 15.58V9.1H268.13V7.42H270.13V4.36L272.17 4.12V7.42H274.53V9.1H272.19V15.24C272.19 15.6133 272.277 15.88 272.45 16.04C272.637 16.2 272.897 16.28 273.23 16.28H274.55V18H272.53ZM280.236 18.18C279.596 18.18 279.002 18.0533 278.456 17.8C277.922 17.5467 277.462 17.1867 277.076 16.72C276.689 16.2533 276.389 15.6867 276.176 15.02C275.976 14.34 275.876 13.5667 275.876 12.7C275.876 11.5533 276.056 10.5733 276.416 9.76C276.789 8.94667 277.302 8.32667 277.956 7.9C278.609 7.46 279.369 7.24 280.236 7.24C280.822 7.24 281.356 7.33333 281.836 7.52C282.316 7.70667 282.722 7.96667 283.056 8.3C283.402 8.62 283.649 9.00667 283.796 9.46H283.916L283.996 7.42H285.956V18H283.996L283.916 15.94H283.796C283.556 16.6067 283.122 17.1467 282.496 17.56C281.869 17.9733 281.116 18.18 280.236 18.18ZM280.936 16.48C281.576 16.48 282.116 16.3333 282.556 16.04C282.996 15.7467 283.329 15.36 283.556 14.88C283.782 14.4 283.896 13.8733 283.896 13.3V12.1C283.896 11.5133 283.776 10.98 283.536 10.5C283.309 10.02 282.976 9.64 282.536 9.36C282.109 9.06667 281.589 8.92 280.976 8.92C280.349 8.92 279.809 9.07333 279.356 9.38C278.916 9.68667 278.576 10.12 278.336 10.68C278.109 11.24 277.996 11.9133 277.996 12.7C277.996 13.4733 278.109 14.1467 278.336 14.72C278.562 15.2933 278.896 15.7333 279.336 16.04C279.776 16.3333 280.309 16.48 280.936 16.48ZM292.198 18C291.398 18 290.798 17.8133 290.398 17.44C289.998 17.0533 289.798 16.4333 289.798 15.58V9.1H287.798V7.42H289.798V4.36L291.838 4.12V7.42H294.198V9.1H291.858V15.24C291.858 15.6133 291.945 15.88 292.118 16.04C292.305 16.2 292.565 16.28 292.898 16.28H294.218V18H292.198ZM296.319 18V7.42H298.379V18H296.319ZM297.359 5.8C297.012 5.8 296.726 5.70667 296.499 5.52C296.272 5.33333 296.159 5.07333 296.159 4.74C296.159 4.40667 296.272 4.14667 296.499 3.96C296.726 3.77333 297.012 3.68 297.359 3.68C297.706 3.68 297.992 3.77333 298.219 3.96C298.446 4.14667 298.559 4.40667 298.559 4.74C298.559 5.07333 298.446 5.33333 298.219 5.52C297.992 5.70667 297.706 5.8 297.359 5.8ZM305.781 18.18C305.007 18.18 304.301 18.0533 303.661 17.8C303.034 17.5467 302.494 17.18 302.041 16.7C301.587 16.22 301.234 15.6467 300.981 14.98C300.727 14.3133 300.601 13.5667 300.601 12.74C300.601 11.6467 300.807 10.6933 301.221 9.88C301.647 9.05333 302.247 8.41333 303.021 7.96C303.807 7.49333 304.727 7.26 305.781 7.26C306.554 7.26 307.254 7.38667 307.881 7.64C308.521 7.88 309.067 8.24 309.521 8.72C309.974 9.2 310.321 9.78 310.561 10.46C310.814 11.1267 310.941 11.88 310.941 12.72C310.941 13.8 310.734 14.7533 310.321 15.58C309.907 16.3933 309.314 17.0333 308.541 17.5C307.767 17.9533 306.847 18.18 305.781 18.18ZM305.781 16.46C306.394 16.46 306.927 16.32 307.381 16.04C307.847 15.7467 308.207 15.32 308.461 14.76C308.714 14.2 308.841 13.52 308.841 12.72C308.841 12.12 308.767 11.5933 308.621 11.14C308.487 10.6733 308.287 10.28 308.021 9.96C307.754 9.62667 307.434 9.38 307.061 9.22C306.687 9.04667 306.261 8.96 305.781 8.96C305.167 8.96 304.627 9.10667 304.161 9.4C303.707 9.69333 303.347 10.12 303.081 10.68C302.827 11.2267 302.701 11.9133 302.701 12.74C302.701 13.3267 302.767 13.8533 302.901 14.32C303.047 14.7733 303.254 15.16 303.521 15.48C303.801 15.8 304.127 16.0467 304.501 16.22C304.887 16.38 305.314 16.46 305.781 16.46ZM313.174 18V7.42H315.134L315.214 9.52H315.334C315.641 8.77333 316.121 8.21333 316.774 7.84C317.428 7.45333 318.141 7.26 318.914 7.26C319.461 7.26 319.961 7.34 320.414 7.5C320.881 7.66 321.281 7.92 321.614 8.28C321.961 8.62667 322.228 9.08667 322.414 9.66C322.601 10.22 322.694 10.9067 322.694 11.72V18H320.634V12.14C320.634 11.42 320.548 10.8267 320.374 10.36C320.201 9.88 319.934 9.52667 319.574 9.3C319.214 9.07333 318.748 8.96 318.174 8.96C317.574 8.96 317.048 9.10667 316.594 9.4C316.154 9.69333 315.814 10.0867 315.574 10.58C315.334 11.06 315.214 11.6067 315.214 12.22V18H313.174Z" fill="#0A0A0A" style="fill:#0A0A0A;fill:color(display-p3 0.0403 0.0403 0.0403);fill-opacity:1;"/>
</svg>
